<svg width="52" height="52" viewBox="0 0 52 52" fill="none" xmlns="http://www.w3.org/2000/svg">
<rect width="52" height="52" fill="#052555"/>
<path d="M10.0911 16.7936C10.9552 16.7936 11.7975 16.7936 12.6397 16.7936C12.7863 16.7936 12.8082 16.955 12.8503 17.1286L14.7924 25.3622L15.0114 26.2757C15.1832 21.0566 16.6251 17.7071 19.4786 16.7571C21.9699 15.9441 23.961 17.6066 25.327 21.6291C25.7875 20.2965 26.4647 19.2542 27.2659 18.645C28.0835 18.0355 28.9622 17.739 29.8465 17.7741C29.8465 17.3691 29.8566 16.9824 29.8465 16.5987C29.8347 16.276 29.8835 16.1572 30.0772 16.1633C30.8622 16.1846 31.6488 16.1633 32.4355 16.1633C32.4961 16.1633 32.5584 16.1633 32.6494 16.1846V17.2534C32.6494 17.768 32.6494 17.7589 32.929 17.7741C34.0947 17.838 35.1946 18.31 36.1446 19.6011C36.4209 19.9817 36.6618 20.4446 36.938 20.8983V16.9672H39.6871V26.9882L39.7477 27.0217C39.7898 26.9182 39.8336 26.8147 39.874 26.7172C41.0745 23.5728 42.2749 20.4263 43.4754 17.2778C43.5081 17.17 43.5572 17.0814 43.6169 17.0226C43.6767 16.9638 43.7445 16.9371 43.8123 16.9459C44.5989 16.9641 45.3839 16.9459 46.1891 16.9459V35.0635H43.4501V25.0151L43.4047 24.9816C43.3575 25.0973 43.307 25.2069 43.2632 25.3226C42.0706 28.4529 40.8802 31.5851 39.6921 34.7194C39.6538 34.8421 39.5967 34.9422 39.5277 35.0075C39.4586 35.0729 39.3806 35.1008 39.303 35.0879C38.6006 35.0666 37.8982 35.0879 37.1974 35.0879H36.9515V30.6239C35.8246 33.0356 34.3322 33.7907 32.6477 33.8607V35.8369H29.8465V33.8638C28.0357 33.7755 26.454 32.9077 25.3894 30.0667C24.5118 33.069 23.1591 34.8443 21.318 35.3315C20.459 35.5915 19.5784 35.4899 18.7446 35.0347C17.9108 34.5795 17.1464 33.7828 16.5106 32.7067C16.6908 33.4832 16.8711 34.2566 17.0631 35.0879H16.7548C15.9261 35.0879 15.0973 35.0879 14.2703 35.0879C14.2096 35.1051 14.1476 35.081 14.0963 35.0202C14.0449 34.9594 14.0079 34.8664 13.9923 34.759C13.807 33.8851 13.5998 33.0295 13.4129 32.1556C13.3965 32.0563 13.361 31.971 13.3127 31.9151C13.2645 31.8593 13.2068 31.8365 13.1501 31.8511C11.971 31.8511 10.8053 31.8511 9.63295 31.8511C9.57837 31.8377 9.52301 31.8615 9.47758 31.9178C9.43214 31.974 9.39987 32.0588 9.38702 32.1556C9.19836 33.0548 9.00072 33.947 8.79409 34.8321C8.77829 34.8947 8.75498 34.9501 8.72584 34.9944C8.6967 35.0386 8.66247 35.0705 8.62564 35.0879C7.70593 35.0879 6.78621 35.0879 5.8665 35.0879C5.85471 35.0879 5.8446 35.0696 5.81091 35.0392L10.0911 16.7936ZM20.4539 21.0931C20.1343 21.0764 19.8161 21.1774 19.5187 21.3899C19.2213 21.6024 18.9509 21.9221 18.724 22.3294C17.9508 23.7392 17.7386 25.4535 17.9929 27.3353C18.4713 30.8005 20.7521 32.1099 22.1771 29.7378C22.8981 28.5381 23.1238 26.9821 23.0193 25.2465C22.9489 24.1052 22.6484 23.0508 22.1752 22.2846C21.702 21.5185 21.0892 21.0943 20.4539 21.0931ZM32.6578 29.3511C33.4091 29.5247 34.285 28.7634 34.6387 27.652C34.8278 27.0284 34.9174 26.3221 34.8975 25.6119C34.8775 24.9017 34.7489 24.2154 34.5259 23.6296C34.1317 22.6887 33.2154 22.0219 32.6578 22.2868V29.3511ZM29.8313 29.3998V22.2198C29.0699 22.2198 28.3894 22.5547 27.943 23.7149C27.7194 24.2746 27.5911 24.9403 27.5741 25.6301C27.557 26.3199 27.6519 27.0036 27.847 27.5972C28.258 28.9736 29.0025 29.3176 29.8313 29.3998ZM12.5302 27.9109L11.4117 22.7344L10.2781 27.9109H12.5302Z" fill="white"/>
</svg>
