<svg xmlns="http://www.w3.org/2000/svg" width="24" height="24" fill="none"><path fill="#052555" fill-rule="evenodd" d="M4 9h2a1 1 0 0 0 1.894.447L8.118 9h7.764l.224.447A1 1 0 0 0 18 9h2v2H4V9Zm13.118-2H20a2 2 0 0 1 2 2v2a2 2 0 0 1-1.252 1.855 2.038 2.038 0 0 1-.042.579l-1.556 7A2 2 0 0 1 17.198 22H6.802a2 2 0 0 1-1.952-1.566l-1.556-7a2 2 0 0 1-.043-.579A2 2 0 0 1 2 11V9a2 2 0 0 1 2-2h2.882l2.224-4.447a1 1 0 1 1 1.788.894L9.118 7h5.764l-1.776-3.553a1 1 0 1 1 1.788-.894L17.118 7ZM5.247 13h13.506l-1.555 7H6.802l-1.555-7Z" clip-rule="evenodd"/></svg>