<svg xmlns="http://www.w3.org/2000/svg" width="30" height="30" fill="none"><path fill="#fff" fill-rule="evenodd" d="M8.125 13.75a5.625 5.625 0 1 1 0-11.25 5.625 5.625 0 0 1 0 11.25ZM2.5 21.875a5.625 5.625 0 1 0 11.25 0 5.625 5.625 0 0 0-11.25 0Zm13.75 0a5.625 5.625 0 1 0 11.25 0 5.625 5.625 0 0 0-11.25 0Zm0-13.75a5.625 5.625 0 1 0 11.25 0 5.625 5.625 0 0 0-11.25 0Zm5.625 3.125a3.125 3.125 0 1 0 0-6.25 3.125 3.125 0 0 0 0 6.25ZM11.25 8.125a3.125 3.125 0 1 1-6.25 0 3.125 3.125 0 0 1 6.25 0ZM21.875 25a3.125 3.125 0 1 0 0-6.25 3.125 3.125 0 0 0 0 6.25ZM11.25 21.875a3.125 3.125 0 1 1-6.25 0 3.125 3.125 0 0 1 6.25 0Z" clip-rule="evenodd"/></svg>