<svg width="160" height="124" viewBox="0 0 160 124" fill="none" xmlns="http://www.w3.org/2000/svg">
<path d="M130.908 60.8554C128.389 62.1879 126.001 63.4435 123.627 64.6992C109.729 72.1019 95.8377 79.5218 81.9518 86.9587C81.3256 87.3502 80.6027 87.5596 79.8642 87.5634C79.1257 87.5672 78.4008 87.3652 77.7706 86.9801C66.3817 80.8557 54.9786 74.7612 43.5613 68.6966C42.9591 68.3763 42.3569 68.0646 41.5753 67.6546C41.5369 68.2867 41.4814 68.7308 41.4814 69.1793C41.4814 71.682 41.6266 74.1975 41.4344 76.6917C41.255 79.0491 41.7462 80.4372 44.1506 81.6757C49.139 84.2382 50.5099 90.4523 47.7808 95.3851C47.3761 96.1423 47.2534 97.0187 47.4349 97.8579C49.297 104.636 49.2714 111.559 49.0792 118.486C49.0792 119.225 48.3788 120.194 47.7211 120.621C41.8572 124.465 35.9122 124.401 30.0697 120.587C29.7027 120.315 29.396 119.969 29.1689 119.572C28.9419 119.175 28.7992 118.736 28.75 118.281C28.5706 111.298 28.5322 104.32 30.5309 97.512C30.6262 96.9113 30.5461 96.2959 30.3003 95.7396C29.6896 94.0056 29.0191 92.3016 28.2332 90.3113H23.5738V88.4493C23.5738 78.8057 23.5738 69.1622 23.5994 59.5144C23.5994 58.4168 23.2876 57.8359 22.2882 57.3106C15.6855 53.8598 9.13407 50.315 2.55272 46.83C1.43803 46.2406 0.566782 45.5487 0.583865 44.1863C0.583865 42.9051 1.43803 42.2218 2.48866 41.6623C27.7094 28.2262 52.9187 14.7788 78.1166 1.31998C78.6373 1.00361 79.2348 0.836304 79.8441 0.836304C80.4534 0.836304 81.051 1.00361 81.5717 1.31998C106.772 14.7873 131.97 28.2561 157.165 41.7263C158.083 42.2873 158.749 43.1808 159.023 44.2205C159.322 45.5018 158.22 46.2577 157.114 46.8428C150.533 50.3321 143.981 53.8769 137.383 57.332C136.388 57.853 136.072 58.4467 136.076 59.54C136.119 69.4526 136.076 79.3652 136.127 89.2735C136.17 89.9846 136.027 90.6946 135.711 91.3334C135.396 91.9722 134.92 92.5179 134.329 92.9166C120.351 103.342 104.707 109.274 87.2989 110.5C75.238 111.354 63.3822 110.354 51.8082 106.609C51.5648 106.532 51.3342 106.421 50.9541 106.271C51.458 104.708 51.9449 103.209 52.4659 101.574C55.0712 102.253 57.5909 103.043 60.1534 103.559C85.2446 108.586 108.627 104.841 129.768 89.833C130.323 89.4358 130.913 88.6201 130.917 87.9966C130.994 79.2029 130.968 70.4093 130.964 61.6199C130.985 61.4362 130.951 61.2441 130.908 60.8554ZM151.114 44.2248L137.02 36.7081C118.339 26.7428 99.653 16.7861 80.9609 6.8379C80.6282 6.68102 80.2664 6.59543 79.8987 6.5866C79.5309 6.57778 79.1654 6.64592 78.8255 6.78665C55.7972 19.0126 32.7874 31.2728 9.79605 43.5671C9.44189 43.7832 9.09972 44.0185 8.77105 44.2718C9.09991 44.4896 9.26647 44.622 9.45439 44.6988C18.6068 49.5804 27.7763 54.4363 36.9073 59.3649C37.8213 59.856 38.4021 59.5101 39.0897 59.1428C46.6975 55.0855 54.301 51.0282 61.9002 46.9709C64.7489 45.4505 67.589 43.9087 70.4077 42.3926C68.9428 38.1559 69.7927 35.2005 73.2606 33.2018C77.6212 30.6905 82.1482 30.6692 86.4618 33.2658C91.3177 36.1871 91.2536 41.9997 86.4233 44.9636C83.2074 46.941 79.7395 47.1887 76.1093 46.2449C75.3256 46.0496 74.4989 46.1264 73.7646 46.4627C66.9313 50.0416 60.1364 53.6975 53.3329 57.332L43.3306 62.6534C43.9157 63.0036 44.3001 63.2599 44.7058 63.4777C55.7502 69.3928 66.8031 75.2396 77.7877 81.2187C79.3551 82.0729 80.4527 81.9875 81.9646 81.176C102.465 70.1829 122.975 59.2296 143.494 48.3162C145.925 47.0136 148.355 45.7068 151.114 44.2248ZM35.1093 100.224C35.2545 100.036 35.1563 100.109 35.1093 100.203C33.7298 105.451 33.6999 110.816 33.828 116.188C33.8766 116.402 33.9699 116.602 34.1017 116.776C34.2335 116.951 34.4008 117.095 34.5925 117.201C35.8442 117.972 37.2806 118.391 38.7506 118.415C40.2206 118.439 41.67 118.067 42.9463 117.337C43.2248 117.152 43.4607 116.91 43.6382 116.626C43.8157 116.342 43.9307 116.024 43.9755 115.693C44.1143 113.731 44.1143 111.761 43.9755 109.799C43.7022 106.494 43.258 103.205 42.9206 100.224H35.1093ZM28.75 87.8812C29.9458 84.3194 32.2008 81.8508 35.7499 80.5525C36.0617 80.4372 36.3179 79.7239 36.3179 79.2712C36.3606 74.7983 36.3606 70.3253 36.3179 65.8523C36.3166 65.6091 36.2633 65.3689 36.1616 65.148C36.06 64.927 35.9123 64.7303 35.7285 64.571C33.4821 63.2898 31.1844 62.1025 28.75 60.8041V87.8812ZM38.8377 85.1693C37.8224 85.1822 36.8338 85.4964 35.9974 86.072C35.1609 86.6477 34.5144 87.4588 34.1396 88.4025C33.7649 89.3462 33.679 90.38 33.8927 91.3726C34.1064 92.3653 34.6102 93.272 35.3401 93.9779C36.07 94.6838 36.9931 95.1569 37.9924 95.3373C38.9916 95.5177 40.0219 95.3972 40.9525 94.9911C41.8832 94.585 42.6722 93.9117 43.2196 93.0564C43.7669 92.2012 44.0478 91.2027 44.0268 90.1875C43.9987 88.8387 43.44 87.5553 42.4717 86.6159C41.5035 85.6764 40.2038 85.1566 38.8548 85.1693H38.8377ZM79.8121 42.0338C81.2941 41.4829 82.7504 41.1284 84.0061 40.4195C85.2617 39.7105 85.1891 38.7624 84.1128 37.857C82.0927 36.1486 77.5742 36.1486 75.5712 37.857C74.4821 38.7624 74.4095 39.7233 75.6438 40.4195C76.878 41.1156 78.3472 41.4615 79.8292 42.0168L79.8121 42.0338Z" fill="white"/>
</svg>
