<svg width="30" height="30" viewBox="0 0 30 30" fill="none" xmlns="http://www.w3.org/2000/svg">
<path fill-rule="evenodd" clip-rule="evenodd" d="M30 15C30 23.2843 23.2843 30 15 30C6.71573 30 0 23.2843 0 15C0 6.71573 6.71573 0 15 0C23.2843 0 30 6.71573 30 15ZM23.8401 9.46468C24.4964 9.46468 24.6446 9.80343 24.4964 10.2692C24.2651 11.3367 22.3444 14.1683 21.7495 15.0453C21.6365 15.2119 21.5713 15.308 21.5747 15.308C21.3418 15.6891 21.2571 15.8585 21.5747 16.2819C21.6895 16.4385 21.933 16.6773 22.2112 16.9503C22.4973 17.2311 22.8203 17.548 23.0779 17.8486C24.0094 18.9072 24.7293 19.7964 24.9198 20.4103C25.0892 21.0243 24.7928 21.3419 24.1576 21.3419H21.977C21.3991 21.3419 21.1012 21.01 20.4663 20.3027C20.1941 19.9994 19.86 19.6271 19.4152 19.1824C18.1238 17.9333 17.5521 17.7639 17.2346 17.7639C16.79 17.7639 16.6629 17.8698 16.6629 18.5049V20.4739C16.6629 21.0031 16.4936 21.3207 15.0962 21.3207C12.7886 21.3207 10.2268 19.9234 8.42723 17.3193C5.71728 13.5084 4.97627 10.6291 4.97627 10.0575C4.97627 9.73991 5.08213 9.44351 5.71727 9.44351H7.91911C8.46957 9.44351 8.68128 9.6764 8.893 10.2904C9.97274 13.4026 11.7723 16.1337 12.5133 16.1337C12.7886 16.1337 12.9156 16.0067 12.9156 15.308V12.0899C12.8633 11.1752 12.5449 10.7767 12.3088 10.4812C12.1623 10.2979 12.0476 10.1542 12.0476 9.95163C12.0476 9.69757 12.2593 9.44351 12.598 9.44351H16.0278C16.4936 9.44351 16.6629 9.69757 16.6629 10.248V14.5882C16.6629 15.054 16.8535 15.2233 17.0017 15.2233C17.2769 15.2233 17.5098 15.054 18.0179 14.5458C19.5846 12.7886 20.7067 10.0787 20.7067 10.0787C20.8549 9.76108 21.1089 9.46468 21.6594 9.46468H23.8401Z" fill="white"/>
</svg>
