<svg xmlns="http://www.w3.org/2000/svg" width="110" height="40" fill="none"><g clip-path="url(#a)"><path fill="#FF6B00" d="M97.214 9.03h4.72c.304 0 .377.089.387.378.091 2.799.197 5.594.304 8.39.03.86.052 1.723.119 2.581a.732.732 0 0 1-.326.7c-.971.777-2.104 1.264-3.216 1.785-4.987 2.33-10.212 3.959-15.569 5.177-2.073.471-4.165.852-6.263 1.218-.323.054-.405-.031-.405-.36V9.542c0-.371.08-.505.481-.493 1.102.03 2.208 0 3.31 0 .072.492-.005.995-.22 1.443-.895.627-.98 1.635-.194 2.336a1.376 1.376 0 0 0 1.805.03 1.41 1.41 0 0 0 .354-1.866c-.116-.183-.305-.305-.402-.497.017-.41.078-.819.18-1.218a.409.409 0 0 1 .228-.322c.198-.052.404-.07.609-.052h11.848c.205-.02.412 0 .609.058.365.399.237.898.28 1.36-.046.171-.198.254-.304.366a1.444 1.444 0 1 0 2.29 1.675 1.4 1.4 0 0 0-.561-1.827c-.107-.527-.244-1.011-.064-1.504Z"/><path fill="#fff" d="M8.249 9.073h4.607c.265 0 .305.161.38.335l3.512 8.233.395.914c.311-5.22 2.918-8.569 8.076-9.519 4.503-.813 8.102.85 10.572 4.872a7.613 7.613 0 0 1 3.505-2.984 11.572 11.572 0 0 1 4.665-.87c0-.406.018-.792 0-1.176-.022-.323.067-.442.417-.436 1.419.022 2.84 0 4.263 0 .11 0 .222 0 .386.022v1.069c0 .514 0 .505.506.52 2.107.064 4.095.536 5.813 1.827.5.38.935.844 1.434 1.297v-3.93h4.97v10.02l.109.034c.076-.104.155-.207.228-.305 2.17-3.144 4.34-6.29 6.51-9.439a.643.643 0 0 1 .61-.332c1.422.018 2.84 0 4.296 0v18.118h-4.951V17.294l-.082-.033c-.086.116-.177.225-.256.34A4771.18 4771.18 0 0 0 61.758 27a.731.731 0 0 1-.703.368c-1.27-.021-2.54 0-3.806 0h-.445v-4.464c-2.037 2.412-4.735 3.167-7.78 3.237v1.976h-5.063v-1.973c-3.274-.088-6.133-.956-8.057-3.797-1.587 3.002-4.032 4.777-7.36 5.265a10.24 10.24 0 0 1-8.69-2.625c.325.776.651 1.55.998 2.381h-5.048a.448.448 0 0 1-.503-.329c-.335-.874-.71-1.73-1.047-2.603a.432.432 0 0 0-.475-.305H7.42a.402.402 0 0 0-.445.305c-.34.899-.698 1.791-1.072 2.676a.462.462 0 0 1-.304.256H.612c-.021 0-.04-.018-.1-.049L8.249 9.073Zm18.733 4.3a4.262 4.262 0 0 0-3.127 1.236c-1.398 1.41-1.782 3.124-1.322 5.005.865 3.466 4.988 4.775 7.564 2.403 1.303-1.2 1.711-2.756 1.522-4.491a4.67 4.67 0 0 0-4.637-4.154Zm22.06 8.257c1.359.174 2.942-.587 3.582-1.699a3.84 3.84 0 0 0-.205-4.022c-.712-.941-2.368-1.608-3.376-1.343v7.064Zm-5.109.049v-7.18c-1.376 0-2.606.335-3.413 1.495a3.543 3.543 0 0 0-.174 3.882c.743 1.377 2.089 1.72 3.587 1.803ZM12.658 20.19l-2.022-5.176-2.049 5.176h4.071ZM103.009 36.867h-25.97v-6.48c.913-.16 1.826-.304 2.74-.48A76.639 76.639 0 0 0 98.09 24.12c2.077-.971 4.132-1.997 5.968-3.392a14.894 14.894 0 0 0 1.961-1.827c.288-.34.479-.75.554-1.188a1.718 1.718 0 0 0-.889-1.897c-.213-.127-.438-.237-.718-.386 2.506.064 3.912 1.942 2.929 4.059a6.171 6.171 0 0 1-1.827 2.299c-.914.712-1.885 1.373-2.856 2.012a.836.836 0 0 0-.436.82c.09 3.986.169 7.972.238 11.957l-.006.29ZM89.285.681a7.025 7.025 0 0 1 5.317 2.159 9.059 9.059 0 0 1 2.229 4.34c.228.992.402 2.003.533 3.014.038.49.019.982-.058 1.467-.067.61-.305.838-.786.81-.441-.024-.609-.286-.67-.892-.088-1.118-.149-2.238-.304-3.35a7.859 7.859 0 0 0-1.922-4.226c-1.452-1.592-3.325-2.055-5.398-1.827-2.476.274-3.938 1.858-4.933 3.959a9.885 9.885 0 0 0-.883 3.35c-.07.763-.232 1.522-.366 2.27a.844.844 0 0 1-.87.783.773.773 0 0 1-.695-.852c.082-2.817.719-5.5 2.333-7.841C84.289 1.71 86.423.65 89.285.68ZM43.166 36.782h-.761v-2.968a4.888 4.888 0 0 0-.083-.868.685.685 0 0 0-.584-.61.722.722 0 0 0-.804.381c-.157.341-.247.71-.265 1.084-.033.987 0 1.974 0 2.984h-.74v-5.06h.554l.107.502a1.462 1.462 0 0 1 1.257-.636 1.234 1.234 0 0 1 1.148.797 1.502 1.502 0 0 1 1.158-.782 1.218 1.218 0 0 1 1.336.831c.07.198.12.402.153.61.021.163.03.328.024.492v3.237h-.761v-3.054a3.595 3.595 0 0 0-.092-.828.722.722 0 0 0-1.267-.329 1.522 1.522 0 0 0-.386 1.154v2.658l.006.405ZM50.678 33.792c.088-.874-.107-1.321-.61-1.45-.502-.127-.873.12-1.135.795h-.685c-.085-.794.472-1.425 1.343-1.559 1.035-.155 1.827.448 1.872 1.49.043 1.217 0 2.454 0 3.714-.277-.033-.636.226-.694-.35a1.522 1.522 0 0 1-1.638.457 1.426 1.426 0 0 1-1.09-1.495c0-.761.36-1.31 1.069-1.462a12.81 12.81 0 0 1 1.568-.14Zm0 .743c-.378 0-.731-.024-1.078 0a.78.78 0 0 0-.743.554.822.822 0 0 0 .575 1.096c.64.156 1.167-.134 1.24-.709.024-.313.03-.627.018-.94h-.012ZM59.103 29.825h.73v3.87l.074.033.947-1.193a2.02 2.02 0 0 0 .186-.24 1.029 1.029 0 0 1 1.367-.53c-.28.35-.57.706-.853 1.065-.24.305-.648.61-.67.932-.02.323.344.67.549 1.002.392.636.791 1.266 1.187 1.9.01.022.018.045.021.07-.593.189-.828.11-1.135-.384l-1.188-1.897c0-.021-.036-.033-.055-.052a.98.98 0 0 0-.432.935c.036.466 0 .935 0 1.434h-.728v-6.945ZM22.515 35.26c-.092 1.114-.765 1.671-1.94 1.629-.914-.03-1.523-.707-1.54-1.687v-1.9a1.598 1.598 0 0 1 1.692-1.696 1.604 1.604 0 0 1 1.73 1.665v1.319h-2.698c.041.37.107.735.198 1.096a.725.725 0 0 0 .767.441c.378 0 .78-.054.88-.444.146-.57.5-.496.91-.423Zm-.817-1.27c-.018-.588.095-1.16-.456-1.523a.938.938 0 0 0-1.042.037c-.472.396-.383.935-.386 1.489h1.884v-.003ZM67.903 34.596H65.21c.04.375.112.746.213 1.109.128.347.469.42.825.414.356-.006.719-.092.807-.445.137-.557.493-.493.94-.423a4.86 4.86 0 0 1-.182.682c-.304.694-.996 1.03-1.9.938a1.41 1.41 0 0 1-1.349-1.233c-.1-.891-.107-1.79-.021-2.683.106-.965.825-1.434 1.827-1.361a1.58 1.58 0 0 1 1.522 1.586c.037.451.012.908.012 1.416Zm-.758-.636c-.015-.573.095-1.142-.453-1.523a.944.944 0 0 0-1.042.034c-.475.399-.387.935-.39 1.477l1.885.012ZM28.093 33.198h-.718c-.198-.752-.71-1.074-1.334-.794a.609.609 0 0 0-.143 1.111c.23.154.478.277.74.365.265.122.545.217.794.36a1.438 1.438 0 0 1-.414 2.67c-1.218.305-2.277-.444-2.256-1.61h.71c.222.767.584 1.02 1.278.913a.71.71 0 0 0 .637-.563.655.655 0 0 0-.353-.734c-.207-.122-.433-.207-.652-.305-.312-.13-.616-.275-.914-.435a1.273 1.273 0 0 1-.63-1.392 1.242 1.242 0 0 1 1.026-1.087c1.127-.243 1.998.134 2.214 1.182.01.106.015.213.015.32ZM30.237 35.293h.7c.268.792.667 1.054 1.355.914a.703.703 0 0 0 .573-.542.61.61 0 0 0-.305-.716c-.268-.158-.57-.268-.852-.405a5.387 5.387 0 0 1-.914-.475 1.333 1.333 0 0 1 .344-2.31c.914-.33 2.132-.15 2.39 1.068.022.127.036.255.043.384h-.71c-.234-.759-.663-1.02-1.3-.82-.286.089-.499.278-.478.56a.945.945 0 0 0 .305.591c.22.148.458.265.71.348.264.121.544.216.794.359.264.14.477.36.61.627a1.438 1.438 0 0 1-1.033 2.055c-1.206.266-2.21-.453-2.232-1.638ZM13.191 31.725h.551l.113.49a1.571 1.571 0 0 1 1.26-.609 1.217 1.217 0 0 1 1.243.862c.082.211.132.434.146.66v3.654h-.746v-2.807a8.121 8.121 0 0 0-.067-.944.734.734 0 0 0-.609-.697.828.828 0 0 0-.914.447 2.87 2.87 0 0 0-.225 1.02c-.03.984 0 1.97 0 2.978h-.752v-5.054ZM.235 31.712h.743c0-.682 0-1.354.624-1.787a1.694 1.694 0 0 1 1.285-.247v.637c-1.005.146-1.218.423-1.1 1.388h.993v.673H1.751v4.406H.996v-4.39H.235v-.68ZM8.907 32.407H8.17v-.704h.734v-1.181h.755v1.157h.968v.719h-.96v2.484c0 1.057.053 1.12 1.082 1.322v.609a1.422 1.422 0 0 1-1.827-1.437c-.027-.962-.015-1.943-.015-2.97ZM70.147 31.691h.716v-1.163h.752v1.151h.993v.719h-.95c0 1.053-.028 2.064 0 3.069.021.505.225.609 1.044.722v.651c-1.053.195-1.827-.417-1.827-1.47v-2.951h-.73l.002-.728ZM55.044 36.782h-.736v-5.051h.548l.121.466a1.62 1.62 0 0 1 1.365-.655c.347 0 .53.095.468.475-.009.11-.009.22 0 .329-.054 0-.079.03-.097.024-1.087-.222-1.65.22-1.663 1.337-.018 1.011-.006 2.022-.006 3.075ZM5.834 36.798H5.12v-5.073h.715v5.073ZM6.014 30.266a.517.517 0 0 1-.533.527.509.509 0 0 1-.539-.545.484.484 0 0 1 .539-.518.497.497 0 0 1 .533.536Z"/></g><defs><clipPath id="a"><path fill="#fff" d="M0 .242h110v39.052H0z"/></clipPath></defs></svg>